<svg xmlns="http://www.w3.org/2000/svg" version="1.1" xmlns:xlink="http://www.w3.org/1999/xlink" xmlns:svgjs="http://svgjs.dev/svgjs" width="1440" height="560" preserveAspectRatio="none" viewBox="0 0 1440 560"><g mask="url(&quot;#SvgjsMask1012&quot;)" fill="none"><path d="M-60.43 358.51L-60.43 358.51" stroke="rgba(0, 0, 0, 0.42)" stroke-width="1.5"></path><path d="M-60.43 358.51L-56.4 513.97" stroke="rgba(0, 0, 0, 0.42)" stroke-width="1.5"></path><path d="M-60.43 358.51L105.63 343.74" stroke="rgba(0, 0, 0, 0.42)" stroke-width="1.5"></path><path d="M-60.43 358.51L96.75 542.34" stroke="rgba(0, 0, 0, 0.42)" stroke-width="1.5"></path><path d="M-56.4 513.97L-56.4 513.97" stroke="rgba(0, 0, 0, 0.42)" stroke-width="1.5"></path><path d="M-56.4 513.97L96.75 542.34" stroke="rgba(0, 0, 0, 0.42)" stroke-width="1.5"></path><path d="M-56.4 513.97L-107.76 683.85" stroke="rgba(0, 0, 0, 0.42)" stroke-width="1.5"></path><path d="M-56.4 513.97L46.53 672.38" stroke="rgba(0, 0, 0, 0.42)" stroke-width="1.5"></path><path d="M-56.4 513.97L105.63 343.74" stroke="rgba(0, 0, 0, 0.42)" stroke-width="1.5"></path><path d="M-107.76 683.85L-107.76 683.85" stroke="rgba(0, 0, 0, 0.42)" stroke-width="1.5"></path><path d="M-107.76 683.85L46.53 672.38" stroke="rgba(0, 0, 0, 0.42)" stroke-width="1.5"></path><path d="M-107.76 683.85L96.75 542.34" stroke="rgba(0, 0, 0, 0.42)" stroke-width="1.5"></path><path d="M105.63 343.74L105.63 343.74" stroke="rgba(0, 0, 0, 0.42)" stroke-width="1.5"></path><path d="M105.63 343.74L212.45 392.01" stroke="rgba(0, 0, 0, 0.42)" stroke-width="1.5"></path><path d="M96.75 542.34L96.75 542.34" stroke="rgba(0, 0, 0, 0.42)" stroke-width="1.5"></path><path d="M96.75 542.34L190.95 509.6" stroke="rgba(0, 0, 0, 0.42)" stroke-width="1.5"></path><path d="M46.53 672.38L46.53 672.38" stroke="rgba(0, 0, 0, 0.42)" stroke-width="1.5"></path><path d="M46.53 672.38L96.75 542.34" stroke="rgba(0, 0, 0, 0.42)" stroke-width="1.5"></path><path d="M212.45 392.01L212.45 392.01" stroke="rgba(0, 0, 0, 0.42)" stroke-width="1.5"></path><path d="M212.45 392.01L190.95 509.6" stroke="rgba(0, 0, 0, 0.42)" stroke-width="1.5"></path><path d="M212.45 392.01L387.81 365.86" stroke="rgba(0, 0, 0, 0.42)" stroke-width="1.5"></path><path d="M212.45 392.01L96.75 542.34" stroke="rgba(0, 0, 0, 0.42)" stroke-width="1.5"></path><path d="M212.45 392.01L372.19 545.23" stroke="rgba(0, 0, 0, 0.42)" stroke-width="1.5"></path><path d="M190.95 509.6L190.95 509.6" stroke="rgba(0, 0, 0, 0.42)" stroke-width="1.5"></path><path d="M190.95 509.6L261.42 675.69" stroke="rgba(0, 0, 0, 0.42)" stroke-width="1.5"></path><path d="M190.95 509.6L372.19 545.23" stroke="rgba(0, 0, 0, 0.42)" stroke-width="1.5"></path><path d="M190.95 509.6L105.63 343.74" stroke="rgba(0, 0, 0, 0.42)" stroke-width="1.5"></path><path d="M261.42 675.69L261.42 675.69" stroke="rgba(0, 0, 0, 0.42)" stroke-width="1.5"></path><path d="M261.42 675.69L371.76 707.92" stroke="rgba(0, 0, 0, 0.42)" stroke-width="1.5"></path><path d="M261.42 675.69L372.19 545.23" stroke="rgba(0, 0, 0, 0.42)" stroke-width="1.5"></path><path d="M261.42 675.69L96.75 542.34" stroke="rgba(0, 0, 0, 0.42)" stroke-width="1.5"></path><path d="M387.81 365.86L387.81 365.86" stroke="rgba(0, 0, 0, 0.42)" stroke-width="1.5"></path><path d="M387.81 365.86L513.97 382.91" stroke="rgba(0, 0, 0, 0.42)" stroke-width="1.5"></path><path d="M372.19 545.23L372.19 545.23" stroke="rgba(0, 0, 0, 0.42)" stroke-width="1.5"></path><path d="M372.19 545.23L371.76 707.92" stroke="rgba(0, 0, 0, 0.42)" stroke-width="1.5"></path><path d="M371.76 707.92L371.76 707.92" stroke="rgba(0, 0, 0, 0.42)" stroke-width="1.5"></path><path d="M371.76 707.92L560.52 642.73" stroke="rgba(0, 0, 0, 0.42)" stroke-width="1.5"></path><path d="M371.76 707.92L550.12 560.07" stroke="rgba(0, 0, 0, 0.42)" stroke-width="1.5"></path><path d="M513.97 382.91L513.97 382.91" stroke="rgba(0, 0, 0, 0.42)" stroke-width="1.5"></path><path d="M513.97 382.91L550.12 560.07" stroke="rgba(0, 0, 0, 0.42)" stroke-width="1.5"></path><path d="M513.97 382.91L704.95 397.75" stroke="rgba(0, 0, 0, 0.42)" stroke-width="1.5"></path><path d="M513.97 382.91L650.17 522.78" stroke="rgba(0, 0, 0, 0.42)" stroke-width="1.5"></path><path d="M550.12 560.07L550.12 560.07" stroke="rgba(0, 0, 0, 0.42)" stroke-width="1.5"></path><path d="M550.12 560.07L560.52 642.73" stroke="rgba(0, 0, 0, 0.42)" stroke-width="1.5"></path><path d="M550.12 560.07L650.17 522.78" stroke="rgba(0, 0, 0, 0.42)" stroke-width="1.5"></path><path d="M560.52 642.73L560.52 642.73" stroke="rgba(0, 0, 0, 0.42)" stroke-width="1.5"></path><path d="M560.52 642.73L673.57 672.22" stroke="rgba(0, 0, 0, 0.42)" stroke-width="1.5"></path><path d="M560.52 642.73L650.17 522.78" stroke="rgba(0, 0, 0, 0.42)" stroke-width="1.5"></path><path d="M560.52 642.73L372.19 545.23" stroke="rgba(0, 0, 0, 0.42)" stroke-width="1.5"></path><path d="M703.13 261.27L703.13 261.27" stroke="rgba(0, 0, 0, 0.42)" stroke-width="1.5"></path><path d="M703.13 261.27L810.1 242.13" stroke="rgba(0, 0, 0, 0.42)" stroke-width="1.5"></path><path d="M703.13 261.27L704.95 397.75" stroke="rgba(0, 0, 0, 0.42)" stroke-width="1.5"></path><path d="M703.13 261.27L812.62 362.06" stroke="rgba(0, 0, 0, 0.42)" stroke-width="1.5"></path><path d="M703.13 261.27L513.97 382.91" stroke="rgba(0, 0, 0, 0.42)" stroke-width="1.5"></path><path d="M703.13 261.27L961.5 224.94" stroke="rgba(0, 0, 0, 0.42)" stroke-width="1.5"></path><path d="M703.13 261.27L650.17 522.78" stroke="rgba(0, 0, 0, 0.42)" stroke-width="1.5"></path><path d="M704.95 397.75L704.95 397.75" stroke="rgba(0, 0, 0, 0.42)" stroke-width="1.5"></path><path d="M704.95 397.75L812.62 362.06" stroke="rgba(0, 0, 0, 0.42)" stroke-width="1.5"></path><path d="M704.95 397.75L650.17 522.78" stroke="rgba(0, 0, 0, 0.42)" stroke-width="1.5"></path><path d="M704.95 397.75L810.1 242.13" stroke="rgba(0, 0, 0, 0.42)" stroke-width="1.5"></path><path d="M650.17 522.78L650.17 522.78" stroke="rgba(0, 0, 0, 0.42)" stroke-width="1.5"></path><path d="M673.57 672.22L673.57 672.22" stroke="rgba(0, 0, 0, 0.42)" stroke-width="1.5"></path><path d="M673.57 672.22L812.28 654.48" stroke="rgba(0, 0, 0, 0.42)" stroke-width="1.5"></path><path d="M673.57 672.22L650.17 522.78" stroke="rgba(0, 0, 0, 0.42)" stroke-width="1.5"></path><path d="M673.57 672.22L550.12 560.07" stroke="rgba(0, 0, 0, 0.42)" stroke-width="1.5"></path><path d="M810.1 242.13L810.1 242.13" stroke="rgba(0, 0, 0, 0.42)" stroke-width="1.5"></path><path d="M810.1 242.13L812.62 362.06" stroke="rgba(0, 0, 0, 0.42)" stroke-width="1.5"></path><path d="M810.1 242.13L961.5 224.94" stroke="rgba(0, 0, 0, 0.42)" stroke-width="1.5"></path><path d="M810.1 242.13L965.04 383.76" stroke="rgba(0, 0, 0, 0.42)" stroke-width="1.5"></path><path d="M812.62 362.06L812.62 362.06" stroke="rgba(0, 0, 0, 0.42)" stroke-width="1.5"></path><path d="M860.4 535.82L860.4 535.82" stroke="rgba(0, 0, 0, 0.42)" stroke-width="1.5"></path><path d="M860.4 535.82L939.01 555.34" stroke="rgba(0, 0, 0, 0.42)" stroke-width="1.5"></path><path d="M860.4 535.82L812.28 654.48" stroke="rgba(0, 0, 0, 0.42)" stroke-width="1.5"></path><path d="M860.4 535.82L974.35 642.28" stroke="rgba(0, 0, 0, 0.42)" stroke-width="1.5"></path><path d="M860.4 535.82L812.62 362.06" stroke="rgba(0, 0, 0, 0.42)" stroke-width="1.5"></path><path d="M812.28 654.48L812.28 654.48" stroke="rgba(0, 0, 0, 0.42)" stroke-width="1.5"></path><path d="M812.28 654.48L939.01 555.34" stroke="rgba(0, 0, 0, 0.42)" stroke-width="1.5"></path><path d="M812.28 654.48L974.35 642.28" stroke="rgba(0, 0, 0, 0.42)" stroke-width="1.5"></path><path d="M981.21 -85.91L981.21 -85.91" stroke="rgba(0, 0, 0, 0.42)" stroke-width="1.5"></path><path d="M981.21 -85.91L1143.1 -89.97" stroke="rgba(0, 0, 0, 0.42)" stroke-width="1.5"></path><path d="M981.21 -85.91L1008.35 107.62" stroke="rgba(0, 0, 0, 0.42)" stroke-width="1.5"></path><path d="M981.21 -85.91L1148.18 106.88" stroke="rgba(0, 0, 0, 0.42)" stroke-width="1.5"></path><path d="M1008.35 107.62L1008.35 107.62" stroke="rgba(0, 0, 0, 0.42)" stroke-width="1.5"></path><path d="M1008.35 107.62L961.5 224.94" stroke="rgba(0, 0, 0, 0.42)" stroke-width="1.5"></path><path d="M1008.35 107.62L1148.18 106.88" stroke="rgba(0, 0, 0, 0.42)" stroke-width="1.5"></path><path d="M1008.35 107.62L1110.46 262.2" stroke="rgba(0, 0, 0, 0.42)" stroke-width="1.5"></path><path d="M1008.35 107.62L1143.1 -89.97" stroke="rgba(0, 0, 0, 0.42)" stroke-width="1.5"></path><path d="M1008.35 107.62L810.1 242.13" stroke="rgba(0, 0, 0, 0.42)" stroke-width="1.5"></path><path d="M961.5 224.94L961.5 224.94" stroke="rgba(0, 0, 0, 0.42)" stroke-width="1.5"></path><path d="M961.5 224.94L1110.46 262.2" stroke="rgba(0, 0, 0, 0.42)" stroke-width="1.5"></path><path d="M961.5 224.94L965.04 383.76" stroke="rgba(0, 0, 0, 0.42)" stroke-width="1.5"></path><path d="M961.5 224.94L812.62 362.06" stroke="rgba(0, 0, 0, 0.42)" stroke-width="1.5"></path><path d="M961.5 224.94L1133.68 342.27" stroke="rgba(0, 0, 0, 0.42)" stroke-width="1.5"></path><path d="M965.04 383.76L965.04 383.76" stroke="rgba(0, 0, 0, 0.42)" stroke-width="1.5"></path><path d="M965.04 383.76L812.62 362.06" stroke="rgba(0, 0, 0, 0.42)" stroke-width="1.5"></path><path d="M965.04 383.76L939.01 555.34" stroke="rgba(0, 0, 0, 0.42)" stroke-width="1.5"></path><path d="M939.01 555.34L939.01 555.34" stroke="rgba(0, 0, 0, 0.42)" stroke-width="1.5"></path><path d="M939.01 555.34L974.35 642.28" stroke="rgba(0, 0, 0, 0.42)" stroke-width="1.5"></path><path d="M974.35 642.28L974.35 642.28" stroke="rgba(0, 0, 0, 0.42)" stroke-width="1.5"></path><path d="M974.35 642.28L1126.9 654.14" stroke="rgba(0, 0, 0, 0.42)" stroke-width="1.5"></path><path d="M974.35 642.28L1134.55 558.84" stroke="rgba(0, 0, 0, 0.42)" stroke-width="1.5"></path><path d="M1143.1 -89.97L1143.1 -89.97" stroke="rgba(0, 0, 0, 0.42)" stroke-width="1.5"></path><path d="M1143.1 -89.97L1261.91 -40.66" stroke="rgba(0, 0, 0, 0.42)" stroke-width="1.5"></path><path d="M1143.1 -89.97L1148.18 106.88" stroke="rgba(0, 0, 0, 0.42)" stroke-width="1.5"></path><path d="M1143.1 -89.97L1265.04 101.65" stroke="rgba(0, 0, 0, 0.42)" stroke-width="1.5"></path><path d="M1143.1 -89.97L1423.12 -56.84" stroke="rgba(0, 0, 0, 0.42)" stroke-width="1.5"></path><path d="M1148.18 106.88L1148.18 106.88" stroke="rgba(0, 0, 0, 0.42)" stroke-width="1.5"></path><path d="M1148.18 106.88L1265.04 101.65" stroke="rgba(0, 0, 0, 0.42)" stroke-width="1.5"></path><path d="M1148.18 106.88L1110.46 262.2" stroke="rgba(0, 0, 0, 0.42)" stroke-width="1.5"></path><path d="M1148.18 106.88L1261.91 -40.66" stroke="rgba(0, 0, 0, 0.42)" stroke-width="1.5"></path><path d="M1110.46 262.2L1110.46 262.2" stroke="rgba(0, 0, 0, 0.42)" stroke-width="1.5"></path><path d="M1110.46 262.2L1133.68 342.27" stroke="rgba(0, 0, 0, 0.42)" stroke-width="1.5"></path><path d="M1110.46 262.2L1269.49 259.14" stroke="rgba(0, 0, 0, 0.42)" stroke-width="1.5"></path><path d="M1110.46 262.2L965.04 383.76" stroke="rgba(0, 0, 0, 0.42)" stroke-width="1.5"></path><path d="M1133.68 342.27L1133.68 342.27" stroke="rgba(0, 0, 0, 0.42)" stroke-width="1.5"></path><path d="M1133.68 342.27L1269.49 259.14" stroke="rgba(0, 0, 0, 0.42)" stroke-width="1.5"></path><path d="M1133.68 342.27L965.04 383.76" stroke="rgba(0, 0, 0, 0.42)" stroke-width="1.5"></path><path d="M1133.68 342.27L1310.97 350.27" stroke="rgba(0, 0, 0, 0.42)" stroke-width="1.5"></path><path d="M1133.68 342.27L1237.58 511.51" stroke="rgba(0, 0, 0, 0.42)" stroke-width="1.5"></path><path d="M1134.55 558.84L1134.55 558.84" stroke="rgba(0, 0, 0, 0.42)" stroke-width="1.5"></path><path d="M1134.55 558.84L1126.9 654.14" stroke="rgba(0, 0, 0, 0.42)" stroke-width="1.5"></path><path d="M1134.55 558.84L1237.58 511.51" stroke="rgba(0, 0, 0, 0.42)" stroke-width="1.5"></path><path d="M1126.9 654.14L1126.9 654.14" stroke="rgba(0, 0, 0, 0.42)" stroke-width="1.5"></path><path d="M1126.9 654.14L1245.91 672.9" stroke="rgba(0, 0, 0, 0.42)" stroke-width="1.5"></path><path d="M1261.91 -40.66L1261.91 -40.66" stroke="rgba(0, 0, 0, 0.42)" stroke-width="1.5"></path><path d="M1261.91 -40.66L1265.04 101.65" stroke="rgba(0, 0, 0, 0.42)" stroke-width="1.5"></path><path d="M1261.91 -40.66L1423.12 -56.84" stroke="rgba(0, 0, 0, 0.42)" stroke-width="1.5"></path><path d="M1265.04 101.65L1265.04 101.65" stroke="rgba(0, 0, 0, 0.42)" stroke-width="1.5"></path><path d="M1269.49 259.14L1269.49 259.14" stroke="rgba(0, 0, 0, 0.42)" stroke-width="1.5"></path><path d="M1269.49 259.14L1310.97 350.27" stroke="rgba(0, 0, 0, 0.42)" stroke-width="1.5"></path><path d="M1269.49 259.14L1265.04 101.65" stroke="rgba(0, 0, 0, 0.42)" stroke-width="1.5"></path><path d="M1269.49 259.14L1430.98 195.08" stroke="rgba(0, 0, 0, 0.42)" stroke-width="1.5"></path><path d="M1269.49 259.14L1148.18 106.88" stroke="rgba(0, 0, 0, 0.42)" stroke-width="1.5"></path><path d="M1310.97 350.27L1310.97 350.27" stroke="rgba(0, 0, 0, 0.42)" stroke-width="1.5"></path><path d="M1310.97 350.27L1432.02 390.89" stroke="rgba(0, 0, 0, 0.42)" stroke-width="1.5"></path><path d="M1310.97 350.27L1237.58 511.51" stroke="rgba(0, 0, 0, 0.42)" stroke-width="1.5"></path><path d="M1310.97 350.27L1416.81 502.85" stroke="rgba(0, 0, 0, 0.42)" stroke-width="1.5"></path><path d="M1310.97 350.27L1430.98 195.08" stroke="rgba(0, 0, 0, 0.42)" stroke-width="1.5"></path><path d="M1237.58 511.51L1237.58 511.51" stroke="rgba(0, 0, 0, 0.42)" stroke-width="1.5"></path><path d="M1237.58 511.51L1245.91 672.9" stroke="rgba(0, 0, 0, 0.42)" stroke-width="1.5"></path><path d="M1245.91 672.9L1245.91 672.9" stroke="rgba(0, 0, 0, 0.42)" stroke-width="1.5"></path><path d="M1245.91 672.9L1134.55 558.84" stroke="rgba(0, 0, 0, 0.42)" stroke-width="1.5"></path><path d="M1245.91 672.9L1440.88 698.25" stroke="rgba(0, 0, 0, 0.42)" stroke-width="1.5"></path><path d="M1245.91 672.9L1416.81 502.85" stroke="rgba(0, 0, 0, 0.42)" stroke-width="1.5"></path><path d="M1245.91 672.9L974.35 642.28" stroke="rgba(0, 0, 0, 0.42)" stroke-width="1.5"></path><path d="M1423.12 -56.84L1423.12 -56.84" stroke="rgba(0, 0, 0, 0.42)" stroke-width="1.5"></path><path d="M1423.12 -56.84L1543.3 -89.68" stroke="rgba(0, 0, 0, 0.42)" stroke-width="1.5"></path><path d="M1423.12 -56.84L1265.04 101.65" stroke="rgba(0, 0, 0, 0.42)" stroke-width="1.5"></path><path d="M1423.12 -56.84L1610.19 90.2" stroke="rgba(0, 0, 0, 0.42)" stroke-width="1.5"></path><path d="M1423.12 -56.84L1430.98 195.08" stroke="rgba(0, 0, 0, 0.42)" stroke-width="1.5"></path><path d="M1430.98 195.08L1430.98 195.08" stroke="rgba(0, 0, 0, 0.42)" stroke-width="1.5"></path><path d="M1430.98 195.08L1579.05 256.38" stroke="rgba(0, 0, 0, 0.42)" stroke-width="1.5"></path><path d="M1430.98 195.08L1265.04 101.65" stroke="rgba(0, 0, 0, 0.42)" stroke-width="1.5"></path><path d="M1430.98 195.08L1432.02 390.89" stroke="rgba(0, 0, 0, 0.42)" stroke-width="1.5"></path><path d="M1430.98 195.08L1610.19 90.2" stroke="rgba(0, 0, 0, 0.42)" stroke-width="1.5"></path><path d="M1432.02 390.89L1432.02 390.89" stroke="rgba(0, 0, 0, 0.42)" stroke-width="1.5"></path><path d="M1432.02 390.89L1416.81 502.85" stroke="rgba(0, 0, 0, 0.42)" stroke-width="1.5"></path><path d="M1432.02 390.89L1579.85 377.7" stroke="rgba(0, 0, 0, 0.42)" stroke-width="1.5"></path><path d="M1432.02 390.89L1550.19 515.46" stroke="rgba(0, 0, 0, 0.42)" stroke-width="1.5"></path><path d="M1416.81 502.85L1416.81 502.85" stroke="rgba(0, 0, 0, 0.42)" stroke-width="1.5"></path><path d="M1416.81 502.85L1550.19 515.46" stroke="rgba(0, 0, 0, 0.42)" stroke-width="1.5"></path><path d="M1416.81 502.85L1237.58 511.51" stroke="rgba(0, 0, 0, 0.42)" stroke-width="1.5"></path><path d="M1440.88 698.25L1440.88 698.25" stroke="rgba(0, 0, 0, 0.42)" stroke-width="1.5"></path><path d="M1440.88 698.25L1567.74 686.1" stroke="rgba(0, 0, 0, 0.42)" stroke-width="1.5"></path><path d="M1440.88 698.25L1416.81 502.85" stroke="rgba(0, 0, 0, 0.42)" stroke-width="1.5"></path><path d="M1440.88 698.25L1550.19 515.46" stroke="rgba(0, 0, 0, 0.42)" stroke-width="1.5"></path><path d="M1440.88 698.25L1237.58 511.51" stroke="rgba(0, 0, 0, 0.42)" stroke-width="1.5"></path><path d="M1543.3 -89.68L1543.3 -89.68" stroke="rgba(0, 0, 0, 0.42)" stroke-width="1.5"></path><path d="M1543.3 -89.68L1610.19 90.2" stroke="rgba(0, 0, 0, 0.42)" stroke-width="1.5"></path><path d="M1543.3 -89.68L1261.91 -40.66" stroke="rgba(0, 0, 0, 0.42)" stroke-width="1.5"></path><path d="M1543.3 -89.68L1430.98 195.08" stroke="rgba(0, 0, 0, 0.42)" stroke-width="1.5"></path><path d="M1610.19 90.2L1610.19 90.2" stroke="rgba(0, 0, 0, 0.42)" stroke-width="1.5"></path><path d="M1610.19 90.2L1579.05 256.38" stroke="rgba(0, 0, 0, 0.42)" stroke-width="1.5"></path><path d="M1579.05 256.38L1579.05 256.38" stroke="rgba(0, 0, 0, 0.42)" stroke-width="1.5"></path><path d="M1579.05 256.38L1579.85 377.7" stroke="rgba(0, 0, 0, 0.42)" stroke-width="1.5"></path><path d="M1579.85 377.7L1579.85 377.7" stroke="rgba(0, 0, 0, 0.42)" stroke-width="1.5"></path><path d="M1579.85 377.7L1550.19 515.46" stroke="rgba(0, 0, 0, 0.42)" stroke-width="1.5"></path><path d="M1550.19 515.46L1550.19 515.46" stroke="rgba(0, 0, 0, 0.42)" stroke-width="1.5"></path><path d="M1550.19 515.46L1567.74 686.1" stroke="rgba(0, 0, 0, 0.42)" stroke-width="1.5"></path><path d="M1567.74 686.1L1567.74 686.1" stroke="rgba(0, 0, 0, 0.42)" stroke-width="1.5"></path><path d="M1567.74 686.1L1416.81 502.85" stroke="rgba(0, 0, 0, 0.42)" stroke-width="1.5"></path><path d="M1567.74 686.1L1579.85 377.7" stroke="rgba(0, 0, 0, 0.42)" stroke-width="1.5"></path><path d="M1567.74 686.1L1245.91 672.9" stroke="rgba(0, 0, 0, 0.42)" stroke-width="1.5"></path><circle r="5" cx="-60.43" cy="358.51" fill="rgba(0, 0, 0, 0.42)"></circle><circle r="5" cx="-56.4" cy="513.97" fill="rgba(0, 0, 0, 0.42)"></circle><circle r="5" cx="-107.76" cy="683.85" fill="rgba(0, 0, 0, 0.42)"></circle><circle r="5" cx="105.63" cy="343.74" fill="rgba(0, 0, 0, 0.42)"></circle><circle r="5" cx="96.75" cy="542.34" fill="rgba(0, 0, 0, 0.42)"></circle><circle r="5" cx="46.53" cy="672.38" fill="rgba(0, 0, 0, 0.42)"></circle><circle r="5" cx="212.45" cy="392.01" fill="rgba(0, 0, 0, 0.42)"></circle><circle r="5" cx="190.95" cy="509.6" fill="rgba(0, 0, 0, 0.42)"></circle><circle r="5" cx="261.42" cy="675.69" fill="rgba(0, 0, 0, 0.42)"></circle><circle r="5" cx="387.81" cy="365.86" fill="rgba(0, 0, 0, 0.42)"></circle><circle r="5" cx="372.19" cy="545.23" fill="rgba(0, 0, 0, 0.42)"></circle><circle r="5" cx="371.76" cy="707.92" fill="rgba(0, 0, 0, 0.42)"></circle><circle r="5" cx="513.97" cy="382.91" fill="rgba(0, 0, 0, 0.42)"></circle><circle r="5" cx="550.12" cy="560.07" fill="rgba(0, 0, 0, 0.42)"></circle><circle r="5" cx="560.52" cy="642.73" fill="rgba(0, 0, 0, 0.42)"></circle><circle r="5" cx="703.13" cy="261.27" fill="rgba(0, 0, 0, 0.42)"></circle><circle r="5" cx="704.95" cy="397.75" fill="rgba(0, 0, 0, 0.42)"></circle><circle r="5" cx="650.17" cy="522.78" fill="rgba(0, 0, 0, 0.42)"></circle><circle r="5" cx="673.57" cy="672.22" fill="rgba(0, 0, 0, 0.42)"></circle><circle r="5" cx="810.1" cy="242.13" fill="rgba(0, 0, 0, 0.42)"></circle><circle r="5" cx="812.62" cy="362.06" fill="rgba(0, 0, 0, 0.42)"></circle><circle r="5" cx="860.4" cy="535.82" fill="rgba(0, 0, 0, 0.42)"></circle><circle r="5" cx="812.28" cy="654.48" fill="rgba(0, 0, 0, 0.42)"></circle><circle r="5" cx="981.21" cy="-85.91" fill="rgba(0, 0, 0, 0.42)"></circle><circle r="5" cx="1008.35" cy="107.62" fill="rgba(0, 0, 0, 0.42)"></circle><circle r="5" cx="961.5" cy="224.94" fill="rgba(0, 0, 0, 0.42)"></circle><circle r="5" cx="965.04" cy="383.76" fill="rgba(0, 0, 0, 0.42)"></circle><circle r="5" cx="939.01" cy="555.34" fill="rgba(0, 0, 0, 0.42)"></circle><circle r="5" cx="974.35" cy="642.28" fill="rgba(0, 0, 0, 0.42)"></circle><circle r="5" cx="1143.1" cy="-89.97" fill="rgba(0, 0, 0, 0.42)"></circle><circle r="5" cx="1148.18" cy="106.88" fill="rgba(0, 0, 0, 0.42)"></circle><circle r="5" cx="1110.46" cy="262.2" fill="rgba(0, 0, 0, 0.42)"></circle><circle r="5" cx="1133.68" cy="342.27" fill="rgba(0, 0, 0, 0.42)"></circle><circle r="5" cx="1134.55" cy="558.84" fill="rgba(0, 0, 0, 0.42)"></circle><circle r="5" cx="1126.9" cy="654.14" fill="rgba(0, 0, 0, 0.42)"></circle><circle r="5" cx="1261.91" cy="-40.66" fill="rgba(0, 0, 0, 0.42)"></circle><circle r="5" cx="1265.04" cy="101.65" fill="rgba(0, 0, 0, 0.42)"></circle><circle r="5" cx="1269.49" cy="259.14" fill="rgba(0, 0, 0, 0.42)"></circle><circle r="5" cx="1310.97" cy="350.27" fill="rgba(0, 0, 0, 0.42)"></circle><circle r="5" cx="1237.58" cy="511.51" fill="rgba(0, 0, 0, 0.42)"></circle><circle r="5" cx="1245.91" cy="672.9" fill="rgba(0, 0, 0, 0.42)"></circle><circle r="5" cx="1423.12" cy="-56.84" fill="rgba(0, 0, 0, 0.42)"></circle><circle r="5" cx="1430.98" cy="195.08" fill="rgba(0, 0, 0, 0.42)"></circle><circle r="5" cx="1432.02" cy="390.89" fill="rgba(0, 0, 0, 0.42)"></circle><circle r="5" cx="1416.81" cy="502.85" fill="rgba(0, 0, 0, 0.42)"></circle><circle r="5" cx="1440.88" cy="698.25" fill="rgba(0, 0, 0, 0.42)"></circle><circle r="5" cx="1543.3" cy="-89.68" fill="rgba(0, 0, 0, 0.42)"></circle><circle r="5" cx="1610.19" cy="90.2" fill="rgba(0, 0, 0, 0.42)"></circle><circle r="5" cx="1579.05" cy="256.38" fill="rgba(0, 0, 0, 0.42)"></circle><circle r="5" cx="1579.85" cy="377.7" fill="rgba(0, 0, 0, 0.42)"></circle><circle r="5" cx="1550.19" cy="515.46" fill="rgba(0, 0, 0, 0.42)"></circle><circle r="5" cx="1567.74" cy="686.1" fill="rgba(0, 0, 0, 0.42)"></circle><path d="M51.86 560.22L51.86 560.22" stroke="hsla(0, 0%, 0%, 0.49)" stroke-width="1.5"></path><path d="M51.86 560.22L-73 527.99" stroke="hsla(0, 0%, 0%, 0.49)" stroke-width="1.5"></path><path d="M51.86 560.22L79.72 699.07" stroke="hsla(0, 0%, 0%, 0.49)" stroke-width="1.5"></path><path d="M545.35 692.97L545.35 692.97" stroke="hsla(0, 0%, 0%, 0.49)" stroke-width="1.5"></path><path d="M545.35 692.97L710.69 684.01" stroke="hsla(0, 0%, 0%, 0.49)" stroke-width="1.5"></path><path d="M545.35 692.97L357.86 687.67" stroke="hsla(0, 0%, 0%, 0.49)" stroke-width="1.5"></path><path d="M545.35 692.97L524.85 501.9" stroke="hsla(0, 0%, 0%, 0.49)" stroke-width="1.5"></path><path d="M545.35 692.97L678.61 554.32" stroke="hsla(0, 0%, 0%, 0.49)" stroke-width="1.5"></path><path d="M678.61 554.32L678.61 554.32" stroke="hsla(0, 0%, 0%, 0.49)" stroke-width="1.5"></path><path d="M678.61 554.32L807.94 545.14" stroke="hsla(0, 0%, 0%, 0.49)" stroke-width="1.5"></path><path d="M678.61 554.32L710.69 684.01" stroke="hsla(0, 0%, 0%, 0.49)" stroke-width="1.5"></path><path d="M678.61 554.32L789.91 649.71" stroke="hsla(0, 0%, 0%, 0.49)" stroke-width="1.5"></path><path d="M678.61 554.32L524.85 501.9" stroke="hsla(0, 0%, 0%, 0.49)" stroke-width="1.5"></path><path d="M1011.89 259.59L1011.89 259.59" stroke="hsla(0, 0%, 0%, 0.49)" stroke-width="1.5"></path><path d="M1011.89 259.59L985.02 379.74" stroke="hsla(0, 0%, 0%, 0.49)" stroke-width="1.5"></path><path d="M1011.89 259.59L1156.73 236.39" stroke="hsla(0, 0%, 0%, 0.49)" stroke-width="1.5"></path><path d="M1011.89 259.59L1112.74 375.59" stroke="hsla(0, 0%, 0%, 0.49)" stroke-width="1.5"></path><path d="M1011.89 259.59L797.96 390.99" stroke="hsla(0, 0%, 0%, 0.49)" stroke-width="1.5"></path><path d="M1112.74 375.59L1112.74 375.59" stroke="hsla(0, 0%, 0%, 0.49)" stroke-width="1.5"></path><path d="M1112.74 375.59L985.02 379.74" stroke="hsla(0, 0%, 0%, 0.49)" stroke-width="1.5"></path><path d="M1112.74 375.59L1156.73 236.39" stroke="hsla(0, 0%, 0%, 0.49)" stroke-width="1.5"></path><path d="M1112.74 375.59L1275.52 408.55" stroke="hsla(0, 0%, 0%, 0.49)" stroke-width="1.5"></path><path d="M1112.74 375.59L1155.86 556.63" stroke="hsla(0, 0%, 0%, 0.49)" stroke-width="1.5"></path><path d="M1155.86 556.63L1155.86 556.63" stroke="hsla(0, 0%, 0%, 0.49)" stroke-width="1.5"></path><path d="M1155.86 556.63L1263.43 529.95" stroke="hsla(0, 0%, 0%, 0.49)" stroke-width="1.5"></path><path d="M1155.86 556.63L1099.14 672.5" stroke="hsla(0, 0%, 0%, 0.49)" stroke-width="1.5"></path><path d="M1440.95 56.97L1440.95 56.97" stroke="hsla(0, 0%, 0%, 0.49)" stroke-width="1.5"></path><path d="M1440.95 56.97L1556.77 96.5" stroke="hsla(0, 0%, 0%, 0.49)" stroke-width="1.5"></path><path d="M1440.95 56.97L1395.73 -84.36" stroke="hsla(0, 0%, 0%, 0.49)" stroke-width="1.5"></path><path d="M1440.95 56.97L1588.26 -41.04" stroke="hsla(0, 0%, 0%, 0.49)" stroke-width="1.5"></path><path d="M1440.95 56.97L1417.34 232.92" stroke="hsla(0, 0%, 0%, 0.49)" stroke-width="1.5"></path><path d="M1440.95 56.97L1249.59 70.67" stroke="hsla(0, 0%, 0%, 0.49)" stroke-width="1.5"></path><path d="M1440.95 56.97L1545.93 222.73" stroke="hsla(0, 0%, 0%, 0.49)" stroke-width="1.5"></path><path d="M1447.21 357.18L1447.21 357.18" stroke="hsla(0, 0%, 0%, 0.49)" stroke-width="1.5"></path><path d="M1447.21 357.18L1417.34 232.92" stroke="hsla(0, 0%, 0%, 0.49)" stroke-width="1.5"></path><path d="M1447.21 357.18L1600.81 348.2" stroke="hsla(0, 0%, 0%, 0.49)" stroke-width="1.5"></path><path d="M1556.77 96.5L1556.77 96.5" stroke="hsla(0, 0%, 0%, 0.49)" stroke-width="1.5"></path><path d="M1556.77 96.5L1545.93 222.73" stroke="hsla(0, 0%, 0%, 0.49)" stroke-width="1.5"></path><path d="M1556.77 96.5L1588.26 -41.04" stroke="hsla(0, 0%, 0%, 0.49)" stroke-width="1.5"></path><path d="M1556.77 96.5L1417.34 232.92" stroke="hsla(0, 0%, 0%, 0.49)" stroke-width="1.5"></path><path d="M1602.49 546.53L1602.49 546.53" stroke="hsla(0, 0%, 0%, 0.49)" stroke-width="1.5"></path><path d="M1602.49 546.53L1590.6 677.03" stroke="hsla(0, 0%, 0%, 0.49)" stroke-width="1.5"></path><path d="M1602.49 546.53L1407.5 514.79" stroke="hsla(0, 0%, 0%, 0.49)" stroke-width="1.5"></path><path d="M-73 527.99L-73 527.99" stroke="hsla(0, 0%, 0%, 0.49)" stroke-width="1.5"></path><path d="M-73 527.99L-103.98 705.35" stroke="hsla(0, 0%, 0%, 0.49)" stroke-width="1.5"></path><path d="M-73 527.99L79.72 699.07" stroke="hsla(0, 0%, 0%, 0.49)" stroke-width="1.5"></path><path d="M-73 527.99L242 561.57" stroke="hsla(0, 0%, 0%, 0.49)" stroke-width="1.5"></path><path d="M-103.98 705.35L-103.98 705.35" stroke="hsla(0, 0%, 0%, 0.49)" stroke-width="1.5"></path><path d="M-103.98 705.35L79.72 699.07" stroke="hsla(0, 0%, 0%, 0.49)" stroke-width="1.5"></path><path d="M79.72 699.07L79.72 699.07" stroke="hsla(0, 0%, 0%, 0.49)" stroke-width="1.5"></path><path d="M79.72 699.07L238.82 660.85" stroke="hsla(0, 0%, 0%, 0.49)" stroke-width="1.5"></path><path d="M79.72 699.07L242 561.57" stroke="hsla(0, 0%, 0%, 0.49)" stroke-width="1.5"></path><path d="M242 561.57L242 561.57" stroke="hsla(0, 0%, 0%, 0.49)" stroke-width="1.5"></path><path d="M242 561.57L238.82 660.85" stroke="hsla(0, 0%, 0%, 0.49)" stroke-width="1.5"></path><path d="M242 561.57L378.19 529" stroke="hsla(0, 0%, 0%, 0.49)" stroke-width="1.5"></path><path d="M238.82 660.85L238.82 660.85" stroke="hsla(0, 0%, 0%, 0.49)" stroke-width="1.5"></path><path d="M238.82 660.85L357.86 687.67" stroke="hsla(0, 0%, 0%, 0.49)" stroke-width="1.5"></path><path d="M238.82 660.85L378.19 529" stroke="hsla(0, 0%, 0%, 0.49)" stroke-width="1.5"></path><path d="M238.82 660.85L51.86 560.22" stroke="hsla(0, 0%, 0%, 0.49)" stroke-width="1.5"></path><path d="M378.19 529L378.19 529" stroke="hsla(0, 0%, 0%, 0.49)" stroke-width="1.5"></path><path d="M378.19 529L524.85 501.9" stroke="hsla(0, 0%, 0%, 0.49)" stroke-width="1.5"></path><path d="M378.19 529L357.86 687.67" stroke="hsla(0, 0%, 0%, 0.49)" stroke-width="1.5"></path><path d="M357.86 687.67L357.86 687.67" stroke="hsla(0, 0%, 0%, 0.49)" stroke-width="1.5"></path><path d="M357.86 687.67L242 561.57" stroke="hsla(0, 0%, 0%, 0.49)" stroke-width="1.5"></path><path d="M357.86 687.67L524.85 501.9" stroke="hsla(0, 0%, 0%, 0.49)" stroke-width="1.5"></path><path d="M357.86 687.67L79.72 699.07" stroke="hsla(0, 0%, 0%, 0.49)" stroke-width="1.5"></path><path d="M524.85 501.9L524.85 501.9" stroke="hsla(0, 0%, 0%, 0.49)" stroke-width="1.5"></path><path d="M710.69 684.01L710.69 684.01" stroke="hsla(0, 0%, 0%, 0.49)" stroke-width="1.5"></path><path d="M710.69 684.01L789.91 649.71" stroke="hsla(0, 0%, 0%, 0.49)" stroke-width="1.5"></path><path d="M710.69 684.01L807.94 545.14" stroke="hsla(0, 0%, 0%, 0.49)" stroke-width="1.5"></path><path d="M710.69 684.01L524.85 501.9" stroke="hsla(0, 0%, 0%, 0.49)" stroke-width="1.5"></path><path d="M797.96 390.99L797.96 390.99" stroke="hsla(0, 0%, 0%, 0.49)" stroke-width="1.5"></path><path d="M797.96 390.99L807.94 545.14" stroke="hsla(0, 0%, 0%, 0.49)" stroke-width="1.5"></path><path d="M797.96 390.99L985.02 379.74" stroke="hsla(0, 0%, 0%, 0.49)" stroke-width="1.5"></path><path d="M797.96 390.99L678.61 554.32" stroke="hsla(0, 0%, 0%, 0.49)" stroke-width="1.5"></path><path d="M797.96 390.99L789.91 649.71" stroke="hsla(0, 0%, 0%, 0.49)" stroke-width="1.5"></path><path d="M797.96 390.99L524.85 501.9" stroke="hsla(0, 0%, 0%, 0.49)" stroke-width="1.5"></path><path d="M807.94 545.14L807.94 545.14" stroke="hsla(0, 0%, 0%, 0.49)" stroke-width="1.5"></path><path d="M807.94 545.14L789.91 649.71" stroke="hsla(0, 0%, 0%, 0.49)" stroke-width="1.5"></path><path d="M807.94 545.14L983.02 698.03" stroke="hsla(0, 0%, 0%, 0.49)" stroke-width="1.5"></path><path d="M789.91 649.71L789.91 649.71" stroke="hsla(0, 0%, 0%, 0.49)" stroke-width="1.5"></path><path d="M985.02 379.74L985.02 379.74" stroke="hsla(0, 0%, 0%, 0.49)" stroke-width="1.5"></path><path d="M985.02 379.74L1156.73 236.39" stroke="hsla(0, 0%, 0%, 0.49)" stroke-width="1.5"></path><path d="M985.02 379.74L807.94 545.14" stroke="hsla(0, 0%, 0%, 0.49)" stroke-width="1.5"></path><path d="M983.02 698.03L983.02 698.03" stroke="hsla(0, 0%, 0%, 0.49)" stroke-width="1.5"></path><path d="M983.02 698.03L1099.14 672.5" stroke="hsla(0, 0%, 0%, 0.49)" stroke-width="1.5"></path><path d="M983.02 698.03L789.91 649.71" stroke="hsla(0, 0%, 0%, 0.49)" stroke-width="1.5"></path><path d="M983.02 698.03L1155.86 556.63" stroke="hsla(0, 0%, 0%, 0.49)" stroke-width="1.5"></path><path d="M983.02 698.03L710.69 684.01" stroke="hsla(0, 0%, 0%, 0.49)" stroke-width="1.5"></path><path d="M983.02 698.03L985.02 379.74" stroke="hsla(0, 0%, 0%, 0.49)" stroke-width="1.5"></path><path d="M1156.73 236.39L1156.73 236.39" stroke="hsla(0, 0%, 0%, 0.49)" stroke-width="1.5"></path><path d="M1156.73 236.39L1295.25 210.94" stroke="hsla(0, 0%, 0%, 0.49)" stroke-width="1.5"></path><path d="M1156.73 236.39L1249.59 70.67" stroke="hsla(0, 0%, 0%, 0.49)" stroke-width="1.5"></path><path d="M1156.73 236.39L1275.52 408.55" stroke="hsla(0, 0%, 0%, 0.49)" stroke-width="1.5"></path><path d="M1099.14 672.5L1099.14 672.5" stroke="hsla(0, 0%, 0%, 0.49)" stroke-width="1.5"></path><path d="M1099.14 672.5L1263.43 529.95" stroke="hsla(0, 0%, 0%, 0.49)" stroke-width="1.5"></path><path d="M1099.14 672.5L1112.74 375.59" stroke="hsla(0, 0%, 0%, 0.49)" stroke-width="1.5"></path><path d="M1251 -78.25L1251 -78.25" stroke="hsla(0, 0%, 0%, 0.49)" stroke-width="1.5"></path><path d="M1251 -78.25L1395.73 -84.36" stroke="hsla(0, 0%, 0%, 0.49)" stroke-width="1.5"></path><path d="M1251 -78.25L1249.59 70.67" stroke="hsla(0, 0%, 0%, 0.49)" stroke-width="1.5"></path><path d="M1249.59 70.67L1249.59 70.67" stroke="hsla(0, 0%, 0%, 0.49)" stroke-width="1.5"></path><path d="M1249.59 70.67L1295.25 210.94" stroke="hsla(0, 0%, 0%, 0.49)" stroke-width="1.5"></path><path d="M1295.25 210.94L1295.25 210.94" stroke="hsla(0, 0%, 0%, 0.49)" stroke-width="1.5"></path><path d="M1295.25 210.94L1417.34 232.92" stroke="hsla(0, 0%, 0%, 0.49)" stroke-width="1.5"></path><path d="M1275.52 408.55L1275.52 408.55" stroke="hsla(0, 0%, 0%, 0.49)" stroke-width="1.5"></path><path d="M1275.52 408.55L1263.43 529.95" stroke="hsla(0, 0%, 0%, 0.49)" stroke-width="1.5"></path><path d="M1275.52 408.55L1407.5 514.79" stroke="hsla(0, 0%, 0%, 0.49)" stroke-width="1.5"></path><path d="M1263.43 529.95L1263.43 529.95" stroke="hsla(0, 0%, 0%, 0.49)" stroke-width="1.5"></path><path d="M1263.43 529.95L1407.5 514.79" stroke="hsla(0, 0%, 0%, 0.49)" stroke-width="1.5"></path><path d="M1263.43 529.95L1112.74 375.59" stroke="hsla(0, 0%, 0%, 0.49)" stroke-width="1.5"></path><path d="M1395.73 -84.36L1395.73 -84.36" stroke="hsla(0, 0%, 0%, 0.49)" stroke-width="1.5"></path><path d="M1417.34 232.92L1417.34 232.92" stroke="hsla(0, 0%, 0%, 0.49)" stroke-width="1.5"></path><path d="M1417.34 232.92L1545.93 222.73" stroke="hsla(0, 0%, 0%, 0.49)" stroke-width="1.5"></path><path d="M1407.5 514.79L1407.5 514.79" stroke="hsla(0, 0%, 0%, 0.49)" stroke-width="1.5"></path><path d="M1407.5 514.79L1447.21 357.18" stroke="hsla(0, 0%, 0%, 0.49)" stroke-width="1.5"></path><path d="M1407.5 514.79L1590.6 677.03" stroke="hsla(0, 0%, 0%, 0.49)" stroke-width="1.5"></path><path d="M1588.26 -41.04L1588.26 -41.04" stroke="hsla(0, 0%, 0%, 0.49)" stroke-width="1.5"></path><path d="M1588.26 -41.04L1395.73 -84.36" stroke="hsla(0, 0%, 0%, 0.49)" stroke-width="1.5"></path><path d="M1545.93 222.73L1545.93 222.73" stroke="hsla(0, 0%, 0%, 0.49)" stroke-width="1.5"></path><path d="M1545.93 222.73L1600.81 348.2" stroke="hsla(0, 0%, 0%, 0.49)" stroke-width="1.5"></path><path d="M1600.81 348.2L1600.81 348.2" stroke="hsla(0, 0%, 0%, 0.49)" stroke-width="1.5"></path><path d="M1600.81 348.2L1602.49 546.53" stroke="hsla(0, 0%, 0%, 0.49)" stroke-width="1.5"></path><path d="M1600.81 348.2L1417.34 232.92" stroke="hsla(0, 0%, 0%, 0.49)" stroke-width="1.5"></path><path d="M1590.6 677.03L1590.6 677.03" stroke="hsla(0, 0%, 0%, 0.49)" stroke-width="1.5"></path><circle r="25" cx="51.86" cy="560.22" fill="url(&quot;#SvgjsRadialGradient1013&quot;)"></circle><circle r="25" cx="545.35" cy="692.97" fill="url(&quot;#SvgjsRadialGradient1013&quot;)"></circle><circle r="25" cx="678.61" cy="554.32" fill="url(&quot;#SvgjsRadialGradient1013&quot;)"></circle><circle r="25" cx="1011.89" cy="259.59" fill="url(&quot;#SvgjsRadialGradient1013&quot;)"></circle><circle r="25" cx="1112.74" cy="375.59" fill="url(&quot;#SvgjsRadialGradient1013&quot;)"></circle><circle r="25" cx="1155.86" cy="556.63" fill="url(&quot;#SvgjsRadialGradient1013&quot;)"></circle><circle r="25" cx="1440.95" cy="56.97" fill="url(&quot;#SvgjsRadialGradient1013&quot;)"></circle><circle r="25" cx="1447.21" cy="357.18" fill="url(&quot;#SvgjsRadialGradient1013&quot;)"></circle><circle r="25" cx="1556.77" cy="96.5" fill="url(&quot;#SvgjsRadialGradient1013&quot;)"></circle><circle r="25" cx="1602.49" cy="546.53" fill="url(&quot;#SvgjsRadialGradient1013&quot;)"></circle><circle r="5" cx="-73" cy="527.99" fill="rgba(193, 193, 193, 0.745)"></circle><circle r="5" cx="-103.98" cy="705.35" fill="rgba(193, 193, 193, 0.745)"></circle><circle r="5" cx="79.72" cy="699.07" fill="rgba(193, 193, 193, 0.745)"></circle><circle r="5" cx="242" cy="561.57" fill="rgba(193, 193, 193, 0.745)"></circle><circle r="5" cx="238.82" cy="660.85" fill="rgba(193, 193, 193, 0.745)"></circle><circle r="5" cx="378.19" cy="529" fill="rgba(193, 193, 193, 0.745)"></circle><circle r="5" cx="357.86" cy="687.67" fill="rgba(193, 193, 193, 0.745)"></circle><circle r="5" cx="524.85" cy="501.9" fill="rgba(193, 193, 193, 0.745)"></circle><circle r="5" cx="710.69" cy="684.01" fill="rgba(193, 193, 193, 0.745)"></circle><circle r="5" cx="797.96" cy="390.99" fill="rgba(193, 193, 193, 0.745)"></circle><circle r="5" cx="807.94" cy="545.14" fill="rgba(193, 193, 193, 0.745)"></circle><circle r="5" cx="789.91" cy="649.71" fill="rgba(193, 193, 193, 0.745)"></circle><circle r="5" cx="985.02" cy="379.74" fill="rgba(193, 193, 193, 0.745)"></circle><circle r="5" cx="983.02" cy="698.03" fill="rgba(193, 193, 193, 0.745)"></circle><circle r="5" cx="1156.73" cy="236.39" fill="rgba(193, 193, 193, 0.745)"></circle><circle r="5" cx="1099.14" cy="672.5" fill="rgba(193, 193, 193, 0.745)"></circle><circle r="5" cx="1251" cy="-78.25" fill="rgba(193, 193, 193, 0.745)"></circle><circle r="5" cx="1249.59" cy="70.67" fill="rgba(193, 193, 193, 0.745)"></circle><circle r="5" cx="1295.25" cy="210.94" fill="rgba(193, 193, 193, 0.745)"></circle><circle r="5" cx="1275.52" cy="408.55" fill="rgba(193, 193, 193, 0.745)"></circle><circle r="5" cx="1263.43" cy="529.95" fill="rgba(193, 193, 193, 0.745)"></circle><circle r="5" cx="1395.73" cy="-84.36" fill="rgba(193, 193, 193, 0.745)"></circle><circle r="5" cx="1417.34" cy="232.92" fill="rgba(193, 193, 193, 0.745)"></circle><circle r="5" cx="1407.5" cy="514.79" fill="rgba(193, 193, 193, 0.745)"></circle><circle r="5" cx="1588.26" cy="-41.04" fill="rgba(193, 193, 193, 0.745)"></circle><circle r="5" cx="1545.93" cy="222.73" fill="rgba(193, 193, 193, 0.745)"></circle><circle r="5" cx="1600.81" cy="348.2" fill="rgba(193, 193, 193, 0.745)"></circle><circle r="5" cx="1590.6" cy="677.03" fill="rgba(193, 193, 193, 0.745)"></circle></g><defs><mask id="SvgjsMask1012"><rect width="1440" height="560" fill="#ffffff"></rect></mask><radialGradient id="SvgjsRadialGradient1013"><stop stop-color="#ffffff" offset="0.1"></stop><stop stop-color="rgba(0, 0, 0, 0.49)" offset="0.2"></stop><stop stop-color="rgba(0, 0, 0, 0)" offset="1"></stop></radialGradient></defs></svg>